<svg width="90" height="91" viewBox="0 0 90 91" fill="none" xmlns="http://www.w3.org/2000/svg">
<g clip-path="url(#clip0)">
<rect x="8.75586" y="16.2563" width="6.73688" height="26.0181" transform="rotate(-29.6104 8.75586 16.2563)" fill="#95161B"/>
<rect x="49.7871" y="67.2051" width="6.73688" height="26.0181" transform="rotate(-61.2286 49.7871 67.2051)" fill="#95161B"/>
<path d="M76.641 74.161C76.384 72.2921 75.3014 70.6939 73.6703 69.7765L58.1017 61.0193C55.7187 59.6788 52.7039 60.0929 50.7703 62.0263L45.3033 67.4933C44.1834 68.6132 42.3904 68.7527 41.1322 67.8179C37.355 65.0114 33.6635 61.812 30.1598 58.3084C26.6563 54.8049 23.4569 51.1131 20.6502 47.3359C19.7154 46.0779 19.855 44.2847 20.9749 43.1648L26.4418 37.6979C28.3754 35.7643 28.7896 32.7495 27.4489 30.3664L18.6918 14.7978C17.7744 13.1668 16.1764 12.0841 14.3073 11.8273C12.349 11.5584 10.4092 12.2209 8.98505 13.6456L3.21891 19.4117C-0.854641 23.4853 -1.06874 30.7781 2.6158 39.947C6.14038 48.7181 12.8473 58.3143 21.5006 66.9677C30.1542 75.6214 39.7502 82.3281 48.5213 85.8525C52.8645 87.5979 56.7862 88.4683 60.1447 88.4683C63.8762 88.4683 66.9124 87.3934 69.0564 85.2494L74.8226 79.4833C76.2471 78.0589 76.9098 76.119 76.641 74.161ZM72.7608 77.4217L71.7531 78.4291L58.4806 71.1896C57.7736 70.8036 56.8882 71.0644 56.5027 71.7714C56.117 72.4782 56.3775 73.3638 57.0845 73.7493L69.6041 80.5782L66.9945 83.1879C63.8454 86.3368 57.5083 86.3219 49.6082 83.1474C41.1937 79.766 31.9438 73.2879 23.562 64.9061C15.1808 56.5244 8.70239 47.2742 5.32107 38.8598C2.14647 30.9593 2.1317 24.6224 5.28064 21.4735L7.88976 18.8638L9.28546 21.4225C9.55018 21.9076 10.0503 22.1826 10.5665 22.1826C10.8023 22.1826 11.0417 22.1253 11.2632 22.0043C11.97 21.6187 12.2307 20.7331 11.845 20.0263L10.0392 16.7149L11.0466 15.7075C11.7089 15.0455 12.5689 14.6853 13.4588 14.6853C13.6088 14.6853 13.7598 14.6957 13.9106 14.7163C14.8677 14.8478 15.6844 15.3985 16.1506 16.2276L24.9076 31.7962C25.6097 33.0446 25.393 34.6236 24.3801 35.6363L21.7787 38.2379L14.9519 25.7219C14.5664 25.0151 13.6809 24.7544 12.974 25.1401C12.2672 25.5256 12.0065 26.4112 12.3922 27.118L19.6298 40.3866L18.9133 41.1031C16.7786 43.2378 16.5194 46.665 18.31 49.0749C21.2013 52.9659 24.4944 56.7662 28.0981 60.3701C31.7019 63.974 35.5023 67.2672 39.3932 70.1581C41.803 71.949 45.23 71.6895 47.365 69.5548L48.0815 68.8383L51.3922 70.6441C51.614 70.7653 51.8531 70.8224 52.0888 70.8224C52.6051 70.8224 53.1052 70.5475 53.3699 70.0623C53.7556 69.3555 53.4951 68.4699 52.7881 68.0844L50.2303 66.6891L52.8317 64.0877C53.8443 63.075 55.4235 62.8581 56.6721 63.5602L72.2407 72.3172C73.0697 72.7836 73.6206 73.6001 73.752 74.5572C73.8958 75.604 73.5346 76.6479 72.7608 77.4217Z" fill="black"/>
<path d="M76.641 74.161C76.384 72.2921 75.3014 70.6939 73.6703 69.7765L58.1017 61.0193C55.7187 59.6788 52.7039 60.0929 50.7703 62.0263L45.3033 67.4933C44.1834 68.6132 42.3904 68.7527 41.1322 67.8179C37.355 65.0114 33.6635 61.812 30.1598 58.3084C26.6563 54.8049 23.4569 51.1131 20.6502 47.3359C19.7154 46.0779 19.855 44.2847 20.9749 43.1648L26.4418 37.6979C28.3754 35.7643 28.7896 32.7495 27.4489 30.3664L18.6918 14.7978C17.7744 13.1668 16.1764 12.0841 14.3073 11.8273C12.349 11.5584 10.4092 12.2209 8.98505 13.6456L3.21891 19.4117C-0.854641 23.4853 -1.06874 30.7781 2.6158 39.947C6.14038 48.7181 12.8473 58.3143 21.5006 66.9677C30.1542 75.6214 39.7502 82.3281 48.5213 85.8525C52.8645 87.5979 56.7862 88.4683 60.1447 88.4683C63.8762 88.4683 66.9124 87.3934 69.0564 85.2494L74.8226 79.4833C76.2471 78.0589 76.9098 76.119 76.641 74.161ZM72.7608 77.4217L71.7531 78.4291L58.4806 71.1896C57.7736 70.8036 56.8882 71.0644 56.5027 71.7714C56.117 72.4782 56.3775 73.3638 57.0845 73.7493L69.6041 80.5782L66.9945 83.1879C63.8454 86.3368 57.5083 86.3219 49.6082 83.1474C41.1937 79.766 31.9438 73.2879 23.562 64.9061C15.1808 56.5244 8.70239 47.2742 5.32107 38.8598C2.14647 30.9593 2.1317 24.6224 5.28064 21.4735L7.88976 18.8638L9.28546 21.4225C9.55018 21.9076 10.0503 22.1826 10.5665 22.1826C10.8023 22.1826 11.0417 22.1253 11.2632 22.0043C11.97 21.6187 12.2307 20.7331 11.845 20.0263L10.0392 16.7149L11.0466 15.7075C11.7089 15.0455 12.5689 14.6853 13.4588 14.6853C13.6088 14.6853 13.7598 14.6957 13.9106 14.7163C14.8677 14.8478 15.6844 15.3985 16.1506 16.2276L24.9076 31.7962C25.6097 33.0446 25.393 34.6236 24.3801 35.6363L21.7787 38.2379L14.9519 25.7219C14.5664 25.0151 13.6809 24.7544 12.974 25.1401C12.2672 25.5256 12.0065 26.4112 12.3922 27.118L19.6298 40.3866L18.9133 41.1031C16.7786 43.2378 16.5194 46.665 18.31 49.0749C21.2013 52.9659 24.4944 56.7662 28.0981 60.3701C31.7019 63.974 35.5023 67.2672 39.3932 70.1581C41.803 71.949 45.23 71.6895 47.365 69.5548L48.0815 68.8383L51.3922 70.6441C51.614 70.7653 51.8531 70.8224 52.0888 70.8224C52.6051 70.8224 53.1052 70.5475 53.3699 70.0623C53.7556 69.3555 53.4951 68.4699 52.7881 68.0844L50.2303 66.6891L52.8317 64.0877C53.8443 63.075 55.4235 62.8581 56.6721 63.5602L72.2407 72.3172C73.0697 72.7836 73.6206 73.6001 73.752 74.5572C73.8958 75.604 73.5346 76.6479 72.7608 77.4217Z" fill="black"/>
<path d="M69.8813 38.8996H68.2291V26.362C68.2291 25.557 67.5765 24.9041 66.7712 24.9041C65.9661 24.9041 65.3133 25.5568 65.3133 26.362V38.8996H57.7032L60.419 26.6783C60.5936 25.8923 60.098 25.1135 59.3119 24.9389C58.5257 24.764 57.7473 25.2599 57.5726 26.0458L54.4625 40.0413C54.3665 40.473 54.4716 40.9248 54.7485 41.2698C55.0252 41.6147 55.4434 41.8155 55.8856 41.8155H65.3131V46.5777C65.3131 47.3828 65.9658 48.0356 66.771 48.0356C67.5761 48.0356 68.229 47.383 68.229 46.5777V41.8153H69.8811C70.6862 41.8153 71.3391 41.1626 71.3391 40.3574C71.3391 39.5523 70.6864 38.8996 69.8813 38.8996Z" fill="black"/>
<path d="M51.2207 45.12H40.4912C41.1255 43.4499 42.9202 42.3878 45.5087 40.9752C48.7032 39.232 52.6787 37.0625 52.6787 32.138C52.6787 28.1494 49.2342 24.9043 45.0006 24.9043C40.7669 24.9043 37.3224 28.1492 37.3224 32.138C37.3224 32.9431 37.9751 33.596 38.7804 33.596C39.5854 33.596 40.2383 32.9433 40.2383 32.138C40.2383 29.7571 42.3747 27.82 45.0006 27.82C47.6264 27.82 49.7628 29.7569 49.7628 32.138C49.7626 35.1172 47.6279 36.497 44.1118 38.4157C40.9295 40.1524 37.3223 42.121 37.3223 46.5777C37.3223 47.3828 37.9749 48.0357 38.7802 48.0357H51.2206C52.0256 48.0357 52.6785 47.383 52.6785 46.5777C52.6785 45.7725 52.0258 45.12 51.2207 45.12Z" fill="black"/>
<path d="M82.036 62.254L79.1967 62.8217C86.0961 56.121 89.9999 46.9563 89.9999 37.2475C89.9999 17.5798 73.9989 1.57861 54.331 1.57861C42.7396 1.57861 31.83 7.24403 25.1478 16.7337C24.6843 17.392 24.8421 18.3015 25.5004 18.7652C26.1586 19.2288 27.068 19.0709 27.5318 18.4126C33.6688 9.6974 43.6871 4.49429 54.3311 4.49429C72.3912 4.49429 87.0844 19.1873 87.0844 37.2475C87.0844 46.2931 83.3916 54.8226 76.8815 60.9985L77.5316 57.749C77.6894 56.9594 77.1774 56.1914 76.3878 56.0336C75.5983 55.8756 74.8302 56.3878 74.6723 57.1774L73.1174 64.9527C73.0217 65.4307 73.1713 65.9248 73.516 66.2695C73.792 66.5455 74.1641 66.6965 74.5468 66.6965C74.6419 66.6965 74.7375 66.6871 74.8328 66.6682L82.6081 65.113C83.3977 64.955 83.9098 64.187 83.7519 63.3976C83.5934 62.6082 82.8252 62.0965 82.036 62.254Z" fill="black"/>
<path d="M54.331 7.79883C53.5259 7.79883 52.873 8.4515 52.873 9.25675V12.3668C52.873 13.1719 53.5257 13.8248 54.331 13.8248C55.136 13.8248 55.7889 13.1721 55.7889 12.3668V9.25675C55.7887 8.45168 55.1362 7.79883 54.331 7.79883Z" fill="black"/>
<path d="M82.3219 35.7896H79.2118C78.4068 35.7896 77.7539 36.4422 77.7539 37.2475C77.7539 38.0526 78.4066 38.7054 79.2118 38.7054H82.3219C83.127 38.7054 83.7799 38.0527 83.7799 37.2475C83.7799 36.4422 83.127 35.7896 82.3219 35.7896Z" fill="black"/>
<path d="M33.5121 23.5445L30.8188 21.9896C30.1213 21.5869 29.2299 21.8259 28.8274 22.5231C28.4248 23.2204 28.6637 24.1119 29.3609 24.5145L32.0542 26.0694C32.2838 26.202 32.5344 26.2649 32.7817 26.2649C33.2855 26.2649 33.7756 26.0033 34.0456 25.5358C34.4482 24.8386 34.2093 23.9471 33.5121 23.5445Z" fill="black"/>
<path d="M79.3002 49.9802L76.6069 48.4251C75.9096 48.0224 75.018 48.2615 74.6155 48.9586C74.213 49.6557 74.4517 50.5475 75.149 50.95L77.8423 52.505C78.0719 52.6375 78.3226 52.7004 78.5699 52.7004C79.0737 52.7004 79.5637 52.4389 79.8337 51.9713C80.2365 51.2743 79.9976 50.3828 79.3002 49.9802Z" fill="black"/>
<path d="M69.0554 11.744C68.3581 11.3412 67.4665 11.5803 67.064 12.2775L65.509 14.9708C65.1065 15.6681 65.3454 16.5597 66.0425 16.9622C66.2721 17.0947 66.5226 17.1577 66.7701 17.1577C67.2739 17.1577 67.7639 16.8961 68.0339 16.4285L69.5891 13.7352C69.9916 13.0382 69.7527 12.1465 69.0554 11.744Z" fill="black"/>
<path d="M42.6189 57.532C41.9216 57.1293 41.0302 57.3684 40.6275 58.0655L39.0725 60.7589C38.67 61.4562 38.9088 62.3478 39.606 62.7503C39.8356 62.8828 40.0862 62.9458 40.3335 62.9458C40.8373 62.9458 41.3274 62.6842 41.5974 62.2166L43.1526 59.5233C43.5551 58.8261 43.3162 57.9346 42.6189 57.532Z" fill="black"/>
<path d="M79.8338 22.5231C79.4313 21.8258 78.5394 21.5869 77.8424 21.9896L75.1491 23.5447C74.4518 23.9473 74.2129 24.8388 74.6156 25.5362C74.8856 26.0039 75.3757 26.2653 75.8794 26.2653C76.1268 26.2653 76.3774 26.2024 76.607 26.0698L79.3003 24.5149C79.9975 24.112 80.2364 23.2202 79.8338 22.5231Z" fill="black"/>
<path d="M34.0457 48.9587C33.6432 48.2614 32.7514 48.0223 32.0543 48.4252L29.361 49.9804C28.6637 50.3829 28.4248 51.2745 28.8275 51.9718C29.0975 52.4395 29.5876 52.7009 30.0914 52.7009C30.3387 52.7009 30.5893 52.638 30.8189 52.5055L33.5122 50.9505C34.2094 50.5476 34.4483 49.6559 34.0457 48.9587Z" fill="black"/>
<path d="M43.1525 14.9709L41.5975 12.2776C41.195 11.5801 40.3033 11.3412 39.6061 11.7441C38.9088 12.1467 38.6699 13.0384 39.0726 13.7355L40.6277 16.4289C40.8979 16.8966 41.388 17.158 41.8916 17.158C42.1389 17.158 42.3896 17.0951 42.6192 16.9625C43.3161 16.5598 43.555 15.6681 43.1525 14.9709Z" fill="black"/>
<path d="M69.589 60.7589L68.034 58.0656C67.6315 57.3683 66.7398 57.1294 66.0426 57.5321C65.3453 57.9346 65.1064 58.8262 65.5091 59.5235L67.0641 62.2168C67.3341 62.6846 67.8242 62.946 68.3279 62.946C68.5753 62.946 68.8259 62.883 69.0555 62.7505C69.7526 62.3478 69.9915 61.4562 69.589 60.7589Z" fill="black"/>
</g>
<defs>
<clipPath id="clip0">
<rect width="90" height="90" fill="white" transform="translate(0 0.0234375)"/>
</clipPath>
</defs>
</svg>
