<svg width="120" height="103" viewBox="0 0 120 103" fill="none" xmlns="http://www.w3.org/2000/svg">
<path d="M84.0007 65.4188L84.0008 65.4188C85.5152 66.2513 86.4545 67.8302 86.4545 69.5373C86.4545 70.8045 85.4231 71.8359 84.1559 71.8359H34.5543C33.7483 71.8359 33.0948 71.1824 33.0948 70.3764C33.0948 69.5704 33.7483 68.9168 34.5543 68.9168H42.9609H43.2109V68.6668V56.1107V55.8607H42.9609H38.3144C33.6501 55.8607 29.2601 57.6743 25.9555 60.9666L25.9555 60.9666C23.7206 63.1933 21.1737 65.0564 18.386 66.5039C17.961 66.7244 17.6962 67.159 17.6962 67.6372C17.6962 68.343 18.27 68.9168 18.9758 68.9168H26.0515C26.8575 68.9168 27.511 69.5704 27.511 70.3764C27.511 71.1824 26.8575 71.8359 26.0515 71.8359H18.9758C16.6609 71.8359 14.7773 69.9524 14.7773 67.6375C14.7773 66.0652 15.6443 64.6387 17.0409 63.9134C19.5651 62.6027 21.8713 60.9156 23.8955 58.8988C27.7519 55.0572 32.8719 52.9419 38.3147 52.9419H59.0687C63.1603 52.9419 67.1146 54.1523 70.505 56.4428L70.6449 56.2356L70.505 56.4428L81.8124 64.0815C82.5181 64.5583 83.2544 65.008 84.0007 65.4188ZM46.1304 68.6671V68.9171H46.3804H83.0049H83.4894L83.2086 68.5222C83.0515 68.3011 82.8428 68.1131 82.5945 67.9765L82.474 68.1955L82.5945 67.9765C81.7701 67.5231 80.9575 67.0264 80.1786 66.5003L68.8712 58.8616C65.9656 56.8987 62.5756 55.8609 59.069 55.8609H46.3804H46.1304V56.1109V68.6671Z" fill="black" stroke="white" stroke-width="0.5"/>
<path d="M45.3365 74.9346H50.6169C51.4229 74.9346 52.0765 75.5881 52.0765 76.3941C52.0765 77.2001 51.4229 77.8536 50.6169 77.8536H45.3365C44.5305 77.8536 43.877 77.2001 43.877 76.3941C43.877 75.5881 44.5305 74.9346 45.3365 74.9346Z" fill="black" stroke="white" stroke-width="0.5"/>
<mask id="path-3-inside-1" fill="white">
<path d="M118.525 73.2497L117.985 72.3535C115.95 68.9764 112.565 66.5984 108.698 65.8292L104.285 64.9515V42.5812H115.706C118.058 42.5812 119.971 40.668 119.971 38.3165V5.02346C119.971 2.67175 118.058 0.758789 115.706 0.758789H82.413C80.0613 0.758789 78.1483 2.67198 78.1483 5.02346V17.6527C78.1483 18.5968 78.9135 19.3622 79.8578 19.3622C80.8021 19.3622 81.5673 18.5968 81.5673 17.6527V5.02346C81.5673 4.55705 81.9468 4.1776 82.4132 4.1776H115.707C116.173 4.1776 116.552 4.55705 116.552 5.02346V38.3168C116.552 38.7832 116.173 39.1626 115.707 39.1626H82.413C81.9466 39.1626 81.5671 38.7832 81.5671 38.3168V26.9481C81.5671 26.004 80.8019 25.2385 79.8576 25.2385C78.9133 25.2385 78.1481 26.004 78.1481 26.9481V38.3168C78.1481 40.6685 80.0612 42.5814 82.4127 42.5814H95.3645V63.178L93.0957 62.7268C89.9645 62.1041 86.9118 60.2143 84.8877 58.8468L73.5806 51.2083C69.2786 48.3023 64.2609 46.7662 59.0695 46.7662H38.3157C31.4099 46.7662 24.9123 49.4505 20.0202 54.3243C16.9246 57.4084 13.0279 59.5119 8.7513 60.4077L6.29693 60.9217C2.64819 61.6857 0 64.9463 0 68.6743V85.2305C0 87.2053 1.16601 88.9999 2.97093 89.8019L9.77996 92.8282C10.1918 94.9814 11.2291 97.0375 12.8927 98.7011C15.1035 100.912 18.0077 102.018 20.912 102.018C23.8164 102.018 26.7203 100.912 28.9314 98.7011C30.3533 97.2792 31.3152 95.5699 31.8226 93.7589H88.5965C89.1039 95.5699 90.066 97.2792 91.4879 98.7011C93.6301 100.843 96.4778 102.023 99.5073 102.023C102.537 102.023 105.385 100.843 107.527 98.7011C108.949 97.2792 109.911 95.5699 110.418 93.7589H113.661C117.156 93.7589 120 90.9152 120 87.42V78.5532C120 76.6843 119.49 74.8505 118.525 73.2497ZM98.7835 42.5812H100.866V64.2716L98.7835 63.8574V42.5812ZM26.5136 96.2838C25.0173 97.78 23.028 98.6041 20.9118 98.6041C18.7956 98.6041 16.8063 97.78 15.31 96.2838C12.9098 93.8836 12.3759 90.3143 13.7057 87.3926C13.7165 87.3691 13.7268 87.3455 13.7376 87.322C13.7781 87.2353 13.821 87.1495 13.8649 87.0642C13.8855 87.0239 13.9061 86.9838 13.9277 86.944C13.9673 86.8699 14.0085 86.7963 14.0507 86.7232C14.0798 86.6728 14.1096 86.6229 14.1398 86.5732C14.1789 86.5088 14.2185 86.4445 14.2598 86.381C14.2971 86.3236 14.3355 86.2669 14.3744 86.2104C14.4128 86.1544 14.451 86.0981 14.4909 86.0431C14.5366 85.98 14.5842 85.9181 14.632 85.8563C14.6692 85.808 14.7056 85.7592 14.744 85.7116C14.8003 85.642 14.8591 85.5741 14.9177 85.5061C14.9512 85.4674 14.9833 85.4278 15.0175 85.3896C15.1047 85.2928 15.1945 85.1979 15.2868 85.1049C15.2948 85.0969 15.302 85.0884 15.31 85.0805C15.3276 85.0629 15.3461 85.0465 15.3639 85.0292C15.4422 84.9523 15.521 84.8763 15.6013 84.8035C15.6222 84.7845 15.6442 84.7669 15.6653 84.7481C15.7455 84.6771 15.8261 84.6066 15.9086 84.5393C15.9163 84.533 15.9245 84.5271 15.9323 84.5208C18.8298 82.1759 23.009 82.1787 25.903 84.5302C25.9063 84.533 25.9098 84.5353 25.9133 84.5381C26.0017 84.6101 26.0882 84.6856 26.1742 84.762C26.1897 84.7756 26.2056 84.7885 26.2208 84.8023C26.3202 84.892 26.4177 84.9846 26.5133 85.0802C26.6165 85.1834 26.7158 85.2895 26.8124 85.3971C26.8548 85.4445 26.8949 85.493 26.9359 85.541C26.9861 85.5996 27.0365 85.6584 27.0847 85.7182C27.1389 85.7855 27.1911 85.8539 27.2427 85.9223C27.2718 85.9605 27.3006 85.999 27.3287 86.0377C27.3913 86.1239 27.4522 86.2111 27.5111 86.2995C27.5211 86.3145 27.531 86.3297 27.5408 86.3447C29.5518 89.4162 29.2096 93.5876 26.5136 96.2838ZM105.109 96.2838C103.612 97.78 101.623 98.6041 99.5068 98.6041C97.3906 98.6041 95.4015 97.78 93.9053 96.2838C91.2088 93.5876 90.8666 89.4155 92.8778 86.3442C92.8874 86.3295 92.897 86.3147 92.9068 86.3002C92.9657 86.2116 93.0268 86.1241 93.0896 86.0374C93.1175 85.999 93.1461 85.961 93.175 85.9233C93.2268 85.8544 93.2793 85.7857 93.3339 85.718C93.3819 85.6587 93.4316 85.6006 93.4815 85.5424C93.523 85.4939 93.5635 85.4447 93.6064 85.3971C93.703 85.2895 93.8024 85.1836 93.9055 85.0805C95.4017 83.5842 97.3909 82.7602 99.507 82.7602C101.623 82.7602 103.613 83.5842 105.109 85.0805C105.212 85.1836 105.311 85.2898 105.408 85.3974C105.451 85.4447 105.491 85.4935 105.532 85.5417C105.582 85.6001 105.632 85.6587 105.68 85.7182C105.735 85.7857 105.787 85.8542 105.839 85.9228C105.867 85.961 105.896 85.9992 105.924 86.0379C105.987 86.1244 106.048 86.2113 106.107 86.2997C106.117 86.3147 106.127 86.3297 106.137 86.3447C108.147 89.4159 107.805 93.5878 105.109 96.2838ZM116.581 87.42C116.581 89.0302 115.271 90.3401 113.661 90.3401H110.846C110.779 87.8606 109.904 85.4951 108.329 83.5556C108.319 83.5425 108.308 83.5289 108.298 83.5158C108.2 83.397 108.099 83.2805 107.997 83.1647C107.97 83.1352 107.945 83.1047 107.919 83.0752C107.81 82.9554 107.698 82.838 107.583 82.7222C107.564 82.7025 107.546 82.6819 107.526 82.6624C106.054 81.1899 104.247 80.172 102.278 79.6798C101.382 79.456 100.454 79.3409 99.5068 79.3409C98.7495 79.3409 98.0035 79.4147 97.277 79.5586C95.0975 79.9908 93.0941 81.056 91.4875 82.6624C91.4682 82.6817 91.4507 82.7018 91.4317 82.7213C91.3168 82.8378 91.2039 82.9554 91.0949 83.0756C91.0691 83.104 91.0452 83.1335 91.0199 83.1621C90.9163 83.2788 90.8141 83.3965 90.7159 83.5165C90.7061 83.5285 90.6969 83.5409 90.6871 83.5531C89.1109 85.4927 88.2348 87.8597 88.1676 90.3403H32.251C32.1838 87.8566 31.3058 85.4869 29.7257 83.5456C29.7184 83.5364 29.7114 83.5273 29.7041 83.5181C29.601 83.3921 29.4939 83.2685 29.3849 83.1462C29.3647 83.1237 29.346 83.1005 29.3256 83.078C29.1979 82.9371 29.0666 82.7984 28.9309 82.6627C28.3782 82.11 27.782 81.6263 27.1536 81.2117C25.2679 79.9681 23.0898 79.3463 20.9118 79.3463C18.0077 79.3463 15.1033 80.4518 12.8924 82.6627C12.7661 82.789 12.644 82.9186 12.5245 83.0499C12.4891 83.0888 12.4551 83.1284 12.4202 83.1675C12.3358 83.2629 12.2528 83.3592 12.172 83.4567C12.1361 83.5001 12.1003 83.5437 12.0651 83.5878C11.9814 83.692 11.8999 83.7975 11.8202 83.9042C11.7953 83.9374 11.7698 83.97 11.7457 84.0035C11.5314 84.2967 11.3327 84.5991 11.1489 84.9092C11.1438 84.9178 11.1389 84.9267 11.1337 84.9354C11.0439 85.088 10.9579 85.2427 10.8757 85.399C10.8733 85.4035 10.871 85.4081 10.8684 85.4126C10.2724 86.5467 9.8716 87.7734 9.68785 89.0459L4.35983 86.6777C3.78842 86.4237 3.41928 85.8556 3.41928 85.2305V68.6743C3.41928 66.5553 4.92467 64.7021 6.99864 64.2676L9.45301 63.7536C14.3796 62.7217 18.8683 60.2985 22.4341 56.7461C26.6809 52.5149 32.3214 50.1848 38.3164 50.1848H59.0702C63.577 50.1848 67.9329 51.5183 71.6674 54.0409L82.9745 61.6794C85.2435 63.2124 88.6923 65.3363 92.4294 66.0798L108.032 69.1824C110.957 69.7644 113.518 71.5632 115.057 74.1179L115.597 75.0141C116.241 76.0822 116.581 77.3061 116.581 78.5532V87.42Z"/>
</mask>
<path d="M118.525 73.2497L117.985 72.3535C115.95 68.9764 112.565 66.5984 108.698 65.8292L104.285 64.9515V42.5812H115.706C118.058 42.5812 119.971 40.668 119.971 38.3165V5.02346C119.971 2.67175 118.058 0.758789 115.706 0.758789H82.413C80.0613 0.758789 78.1483 2.67198 78.1483 5.02346V17.6527C78.1483 18.5968 78.9135 19.3622 79.8578 19.3622C80.8021 19.3622 81.5673 18.5968 81.5673 17.6527V5.02346C81.5673 4.55705 81.9468 4.1776 82.4132 4.1776H115.707C116.173 4.1776 116.552 4.55705 116.552 5.02346V38.3168C116.552 38.7832 116.173 39.1626 115.707 39.1626H82.413C81.9466 39.1626 81.5671 38.7832 81.5671 38.3168V26.9481C81.5671 26.004 80.8019 25.2385 79.8576 25.2385C78.9133 25.2385 78.1481 26.004 78.1481 26.9481V38.3168C78.1481 40.6685 80.0612 42.5814 82.4127 42.5814H95.3645V63.178L93.0957 62.7268C89.9645 62.1041 86.9118 60.2143 84.8877 58.8468L73.5806 51.2083C69.2786 48.3023 64.2609 46.7662 59.0695 46.7662H38.3157C31.4099 46.7662 24.9123 49.4505 20.0202 54.3243C16.9246 57.4084 13.0279 59.5119 8.7513 60.4077L6.29693 60.9217C2.64819 61.6857 0 64.9463 0 68.6743V85.2305C0 87.2053 1.16601 88.9999 2.97093 89.8019L9.77996 92.8282C10.1918 94.9814 11.2291 97.0375 12.8927 98.7011C15.1035 100.912 18.0077 102.018 20.912 102.018C23.8164 102.018 26.7203 100.912 28.9314 98.7011C30.3533 97.2792 31.3152 95.5699 31.8226 93.7589H88.5965C89.1039 95.5699 90.066 97.2792 91.4879 98.7011C93.6301 100.843 96.4778 102.023 99.5073 102.023C102.537 102.023 105.385 100.843 107.527 98.7011C108.949 97.2792 109.911 95.5699 110.418 93.7589H113.661C117.156 93.7589 120 90.9152 120 87.42V78.5532C120 76.6843 119.49 74.8505 118.525 73.2497ZM98.7835 42.5812H100.866V64.2716L98.7835 63.8574V42.5812ZM26.5136 96.2838C25.0173 97.78 23.028 98.6041 20.9118 98.6041C18.7956 98.6041 16.8063 97.78 15.31 96.2838C12.9098 93.8836 12.3759 90.3143 13.7057 87.3926C13.7165 87.3691 13.7268 87.3455 13.7376 87.322C13.7781 87.2353 13.821 87.1495 13.8649 87.0642C13.8855 87.0239 13.9061 86.9838 13.9277 86.944C13.9673 86.8699 14.0085 86.7963 14.0507 86.7232C14.0798 86.6728 14.1096 86.6229 14.1398 86.5732C14.1789 86.5088 14.2185 86.4445 14.2598 86.381C14.2971 86.3236 14.3355 86.2669 14.3744 86.2104C14.4128 86.1544 14.451 86.0981 14.4909 86.0431C14.5366 85.98 14.5842 85.9181 14.632 85.8563C14.6692 85.808 14.7056 85.7592 14.744 85.7116C14.8003 85.642 14.8591 85.5741 14.9177 85.5061C14.9512 85.4674 14.9833 85.4278 15.0175 85.3896C15.1047 85.2928 15.1945 85.1979 15.2868 85.1049C15.2948 85.0969 15.302 85.0884 15.31 85.0805C15.3276 85.0629 15.3461 85.0465 15.3639 85.0292C15.4422 84.9523 15.521 84.8763 15.6013 84.8035C15.6222 84.7845 15.6442 84.7669 15.6653 84.7481C15.7455 84.6771 15.8261 84.6066 15.9086 84.5393C15.9163 84.533 15.9245 84.5271 15.9323 84.5208C18.8298 82.1759 23.009 82.1787 25.903 84.5302C25.9063 84.533 25.9098 84.5353 25.9133 84.5381C26.0017 84.6101 26.0882 84.6856 26.1742 84.762C26.1897 84.7756 26.2056 84.7885 26.2208 84.8023C26.3202 84.892 26.4177 84.9846 26.5133 85.0802C26.6165 85.1834 26.7158 85.2895 26.8124 85.3971C26.8548 85.4445 26.8949 85.493 26.9359 85.541C26.9861 85.5996 27.0365 85.6584 27.0847 85.7182C27.1389 85.7855 27.1911 85.8539 27.2427 85.9223C27.2718 85.9605 27.3006 85.999 27.3287 86.0377C27.3913 86.1239 27.4522 86.2111 27.5111 86.2995C27.5211 86.3145 27.531 86.3297 27.5408 86.3447C29.5518 89.4162 29.2096 93.5876 26.5136 96.2838ZM105.109 96.2838C103.612 97.78 101.623 98.6041 99.5068 98.6041C97.3906 98.6041 95.4015 97.78 93.9053 96.2838C91.2088 93.5876 90.8666 89.4155 92.8778 86.3442C92.8874 86.3295 92.897 86.3147 92.9068 86.3002C92.9657 86.2116 93.0268 86.1241 93.0896 86.0374C93.1175 85.999 93.1461 85.961 93.175 85.9233C93.2268 85.8544 93.2793 85.7857 93.3339 85.718C93.3819 85.6587 93.4316 85.6006 93.4815 85.5424C93.523 85.4939 93.5635 85.4447 93.6064 85.3971C93.703 85.2895 93.8024 85.1836 93.9055 85.0805C95.4017 83.5842 97.3909 82.7602 99.507 82.7602C101.623 82.7602 103.613 83.5842 105.109 85.0805C105.212 85.1836 105.311 85.2898 105.408 85.3974C105.451 85.4447 105.491 85.4935 105.532 85.5417C105.582 85.6001 105.632 85.6587 105.68 85.7182C105.735 85.7857 105.787 85.8542 105.839 85.9228C105.867 85.961 105.896 85.9992 105.924 86.0379C105.987 86.1244 106.048 86.2113 106.107 86.2997C106.117 86.3147 106.127 86.3297 106.137 86.3447C108.147 89.4159 107.805 93.5878 105.109 96.2838ZM116.581 87.42C116.581 89.0302 115.271 90.3401 113.661 90.3401H110.846C110.779 87.8606 109.904 85.4951 108.329 83.5556C108.319 83.5425 108.308 83.5289 108.298 83.5158C108.2 83.397 108.099 83.2805 107.997 83.1647C107.97 83.1352 107.945 83.1047 107.919 83.0752C107.81 82.9554 107.698 82.838 107.583 82.7222C107.564 82.7025 107.546 82.6819 107.526 82.6624C106.054 81.1899 104.247 80.172 102.278 79.6798C101.382 79.456 100.454 79.3409 99.5068 79.3409C98.7495 79.3409 98.0035 79.4147 97.277 79.5586C95.0975 79.9908 93.0941 81.056 91.4875 82.6624C91.4682 82.6817 91.4507 82.7018 91.4317 82.7213C91.3168 82.8378 91.2039 82.9554 91.0949 83.0756C91.0691 83.104 91.0452 83.1335 91.0199 83.1621C90.9163 83.2788 90.8141 83.3965 90.7159 83.5165C90.7061 83.5285 90.6969 83.5409 90.6871 83.5531C89.1109 85.4927 88.2348 87.8597 88.1676 90.3403H32.251C32.1838 87.8566 31.3058 85.4869 29.7257 83.5456C29.7184 83.5364 29.7114 83.5273 29.7041 83.5181C29.601 83.3921 29.4939 83.2685 29.3849 83.1462C29.3647 83.1237 29.346 83.1005 29.3256 83.078C29.1979 82.9371 29.0666 82.7984 28.9309 82.6627C28.3782 82.11 27.782 81.6263 27.1536 81.2117C25.2679 79.9681 23.0898 79.3463 20.9118 79.3463C18.0077 79.3463 15.1033 80.4518 12.8924 82.6627C12.7661 82.789 12.644 82.9186 12.5245 83.0499C12.4891 83.0888 12.4551 83.1284 12.4202 83.1675C12.3358 83.2629 12.2528 83.3592 12.172 83.4567C12.1361 83.5001 12.1003 83.5437 12.0651 83.5878C11.9814 83.692 11.8999 83.7975 11.8202 83.9042C11.7953 83.9374 11.7698 83.97 11.7457 84.0035C11.5314 84.2967 11.3327 84.5991 11.1489 84.9092C11.1438 84.9178 11.1389 84.9267 11.1337 84.9354C11.0439 85.088 10.9579 85.2427 10.8757 85.399C10.8733 85.4035 10.871 85.4081 10.8684 85.4126C10.2724 86.5467 9.8716 87.7734 9.68785 89.0459L4.35983 86.6777C3.78842 86.4237 3.41928 85.8556 3.41928 85.2305V68.6743C3.41928 66.5553 4.92467 64.7021 6.99864 64.2676L9.45301 63.7536C14.3796 62.7217 18.8683 60.2985 22.4341 56.7461C26.6809 52.5149 32.3214 50.1848 38.3164 50.1848H59.0702C63.577 50.1848 67.9329 51.5183 71.6674 54.0409L82.9745 61.6794C85.2435 63.2124 88.6923 65.3363 92.4294 66.0798L108.032 69.1824C110.957 69.7644 113.518 71.5632 115.057 74.1179L115.597 75.0141C116.241 76.0822 116.581 77.3061 116.581 78.5532V87.42Z" fill="black" stroke="white" mask="url(#path-3-inside-1)"/>
<rect x="18.1816" y="87.7544" width="5.45455" height="5.45454" fill="#95161B"/>
<rect x="97.2725" y="87.7544" width="5.45454" height="5.45454" fill="#95161B"/>
<path d="M103.403 87.4569C102.422 86.4765 101.119 85.9365 99.7325 85.9365C98.3462 85.9365 97.0431 86.4763 96.0624 87.4567C94.0391 89.4803 94.0391 92.7728 96.0624 94.7963C97.0428 95.7767 98.3462 96.3165 99.7325 96.3165C101.119 96.3165 102.422 95.7767 103.402 94.7966C104.383 93.8164 104.922 92.5131 104.922 91.1267C104.922 89.7404 104.383 88.4371 103.403 87.4569ZM100.985 92.379C100.65 92.7135 100.206 92.8977 99.7325 92.8977C99.2595 92.8977 98.8147 92.7135 98.4802 92.379C97.7898 91.6885 97.7898 90.565 98.4802 89.8745C98.8147 89.54 99.2595 89.3556 99.7325 89.3556C100.206 89.3556 100.65 89.5398 100.985 89.8745C101.319 90.2089 101.504 90.6535 101.504 91.1267C101.504 91.5995 101.32 92.0443 100.985 92.379Z" fill="black"/>
<rect x="18.8936" y="88.0029" width="5.45454" height="5.45454" fill="#95161B"/>
<path d="M24.5808 87.0123C23.6001 86.032 22.297 85.4922 20.9107 85.4922C19.5244 85.4922 18.221 86.0322 17.2409 87.0123C16.2607 87.9925 15.7207 89.2959 15.7207 90.6822C15.7207 92.0685 16.2607 93.3719 17.2409 94.352C18.221 95.3322 19.5244 95.8722 20.9109 95.8722C22.2972 95.8722 23.6006 95.3324 24.5808 94.352C26.6043 92.3284 26.6043 89.0359 24.5808 87.0123ZM22.1629 91.9344C21.8285 92.2689 21.3837 92.4531 20.9107 92.4531C20.4375 92.4531 19.9929 92.2689 19.6584 91.9342C19.324 91.5997 19.1395 91.1551 19.1395 90.6819C19.1395 90.2087 19.3237 89.7641 19.6584 89.4297C19.9929 89.0952 20.4375 88.9108 20.9107 88.9108C21.3837 88.9108 21.8285 89.095 22.1629 89.4297C22.8534 90.1204 22.8534 91.244 22.1629 91.9344Z" fill="black"/>
<path d="M98.1816 41.8452H101.363V65.027L98.1816 64.5725V41.8452Z" fill="#95161B"/>
<path d="M85.9173 16.8744H87.3593C87.7513 16.8744 87.9473 17.0424 87.9473 17.3784V25.8484C87.9473 26.203 87.7513 26.3804 87.3593 26.3804H87.2613C86.8693 26.3804 86.6733 26.203 86.6733 25.8484V17.9244H85.9173C85.5346 17.9244 85.3433 17.7517 85.3433 17.4064C85.3433 17.0517 85.5346 16.8744 85.9173 16.8744ZM91.1417 16.8744H95.4257C95.799 16.8744 95.9857 17.0517 95.9857 17.4064C95.9857 17.761 95.799 17.9384 95.4257 17.9384H91.5617L91.3517 20.7244C91.7997 20.5937 92.3597 20.5284 93.0317 20.5284C93.965 20.5284 94.7304 20.7664 95.3277 21.2424C95.925 21.7184 96.2237 22.4184 96.2237 23.3424C96.2237 24.2664 95.8737 25.0224 95.1737 25.6104C94.4737 26.1984 93.6244 26.4924 92.6257 26.4924C91.6364 26.4924 90.8757 26.371 90.3437 26.1284C89.8117 25.8764 89.5457 25.5264 89.5457 25.0784C89.5457 24.7424 89.7417 24.509 90.1337 24.3784C90.255 24.7424 90.5444 25.013 91.0017 25.1904C91.4684 25.3584 92.0284 25.4424 92.6817 25.4424C93.3444 25.4424 93.9184 25.2604 94.4037 24.8964C94.889 24.5324 95.1317 24.0377 95.1317 23.4124C95.1317 22.7777 94.917 22.311 94.4877 22.0124C94.0677 21.7137 93.5684 21.5644 92.9897 21.5644C92.411 21.5644 91.7904 21.6624 91.1277 21.8584C91.0437 21.8864 90.9364 21.9004 90.8057 21.9004C90.6844 21.9004 90.563 21.8444 90.4417 21.7324C90.3204 21.611 90.2597 21.457 90.2597 21.2704L90.5677 17.3924C90.5864 17.2057 90.633 17.075 90.7077 17.0004C90.7917 16.9164 90.9364 16.8744 91.1417 16.8744ZM98.9893 16.8744H103.273C103.647 16.8744 103.833 17.0517 103.833 17.4064C103.833 17.761 103.647 17.9384 103.273 17.9384H99.4093L99.1993 20.7244C99.6473 20.5937 100.207 20.5284 100.879 20.5284C101.813 20.5284 102.578 20.7664 103.175 21.2424C103.773 21.7184 104.071 22.4184 104.071 23.3424C104.071 24.2664 103.721 25.0224 103.021 25.6104C102.321 26.1984 101.472 26.4924 100.473 26.4924C99.484 26.4924 98.7233 26.371 98.1913 26.1284C97.6593 25.8764 97.3933 25.5264 97.3933 25.0784C97.3933 24.7424 97.5893 24.509 97.9813 24.3784C98.1027 24.7424 98.392 25.013 98.8493 25.1904C99.316 25.3584 99.876 25.4424 100.529 25.4424C101.192 25.4424 101.766 25.2604 102.251 24.8964C102.737 24.5324 102.979 24.0377 102.979 23.4124C102.979 22.7777 102.765 22.311 102.335 22.0124C101.915 21.7137 101.416 21.5644 100.837 21.5644C100.259 21.5644 99.638 21.6624 98.9753 21.8584C98.8913 21.8864 98.784 21.9004 98.6533 21.9004C98.532 21.9004 98.4107 21.8444 98.2893 21.7324C98.168 21.611 98.1073 21.457 98.1073 21.2704L98.4153 17.3924C98.434 17.2057 98.4807 17.075 98.5553 17.0004C98.6393 16.9164 98.784 16.8744 98.9893 16.8744ZM105.605 18.5824C105.605 18.1717 105.848 17.7657 106.333 17.3644C106.818 16.9537 107.57 16.7484 108.587 16.7484C109.604 16.7484 110.356 16.9864 110.841 17.4624C111.326 17.9384 111.569 18.4657 111.569 19.0444C111.569 19.623 111.415 20.113 111.107 20.5144C110.808 20.9064 110.426 21.1677 109.959 21.2984C110.538 21.4197 111.032 21.6717 111.443 22.0544C111.854 22.437 112.059 22.9457 112.059 23.5804C112.059 24.439 111.69 25.139 110.953 25.6804C110.225 26.2217 109.362 26.4924 108.363 26.4924C107.374 26.4924 106.594 26.3617 106.025 26.1004C105.465 25.839 105.185 25.517 105.185 25.1344C105.185 24.7517 105.395 24.4997 105.815 24.3784C106.086 25.0877 106.893 25.4424 108.237 25.4424C108.937 25.4424 109.553 25.2837 110.085 24.9664C110.617 24.649 110.883 24.215 110.883 23.6644C110.883 23.1044 110.636 22.689 110.141 22.4184C109.646 22.1384 109.054 21.9984 108.363 21.9984H107.775C107.355 21.9984 107.145 21.8304 107.145 21.4944C107.145 21.1304 107.355 20.9484 107.775 20.9484H108.363C108.942 20.9484 109.422 20.8037 109.805 20.5144C110.197 20.2157 110.393 19.8424 110.393 19.3944C110.393 18.937 110.23 18.559 109.903 18.2604C109.586 17.9524 109.124 17.7984 108.517 17.7984C107.92 17.7984 107.439 17.9244 107.075 18.1764C106.72 18.4284 106.478 18.769 106.347 19.1984C105.852 19.1984 105.605 18.993 105.605 18.5824Z" fill="black"/>
<path d="M86.6733 17.9244H86.9233V17.6744H86.6733V17.9244ZM85.9173 17.1244H87.3593V16.6244H85.9173V17.1244ZM87.3593 17.1244C87.5254 17.1244 87.6033 17.1608 87.6376 17.1902C87.6645 17.2133 87.6973 17.2598 87.6973 17.3784H88.1973C88.1973 17.1609 88.1321 16.9555 87.963 16.8106C87.8013 16.672 87.5852 16.6244 87.3593 16.6244V17.1244ZM87.6973 17.3784V25.8484H88.1973V17.3784H87.6973ZM87.6973 25.8484C87.6973 25.9804 87.662 26.0354 87.6326 26.062C87.5984 26.0929 87.5226 26.1304 87.3593 26.1304V26.6304C87.588 26.6304 87.8062 26.5792 87.968 26.4328C88.1346 26.282 88.1973 26.0711 88.1973 25.8484H87.6973ZM87.3593 26.1304H87.2613V26.6304H87.3593V26.1304ZM87.2613 26.1304C87.098 26.1304 87.0222 26.0929 86.988 26.062C86.9586 26.0354 86.9233 25.9804 86.9233 25.8484H86.4233C86.4233 26.0711 86.486 26.282 86.6526 26.4328C86.8144 26.5792 87.0326 26.6304 87.2613 26.6304V26.1304ZM86.9233 25.8484V17.9244H86.4233V25.8484H86.9233ZM86.6733 17.6744H85.9173V18.1744H86.6733V17.6744ZM85.9173 17.6744C85.7585 17.6744 85.6861 17.638 85.6543 17.6093C85.6273 17.5849 85.5933 17.5335 85.5933 17.4064H85.0933C85.0933 17.6246 85.1549 17.8321 85.3193 17.9805C85.4788 18.1244 85.6934 18.1744 85.9173 18.1744V17.6744ZM85.5933 17.4064C85.5933 17.2727 85.6285 17.2169 85.6567 17.1907C85.6886 17.1612 85.76 17.1244 85.9173 17.1244V16.6244C85.6919 16.6244 85.4763 16.6762 85.3168 16.824C85.1538 16.9752 85.0933 17.1854 85.0933 17.4064H85.5933ZM91.5617 17.9384V17.6884H91.3298L91.3124 17.9196L91.5617 17.9384ZM91.3517 20.7244L91.1024 20.7056L91.0753 21.0654L91.4217 20.9644L91.3517 20.7244ZM95.1737 25.6104L95.0129 25.4189L95.1737 25.6104ZM90.3437 26.1284L90.2367 26.3543L90.2399 26.3558L90.3437 26.1284ZM90.1337 24.3784L90.3709 24.2993L90.2918 24.0621L90.0546 24.1412L90.1337 24.3784ZM91.0017 25.1904L90.9113 25.4235L90.917 25.4256L91.0017 25.1904ZM94.4037 24.8964L94.5537 25.0964L94.4037 24.8964ZM94.4877 22.0124L94.3428 22.2161L94.3449 22.2176L94.4877 22.0124ZM91.1277 21.8584L91.0567 21.6185L91.0486 21.6212L91.1277 21.8584ZM90.4417 21.7324L90.2648 21.9093L90.2721 21.9161L90.4417 21.7324ZM90.2597 21.2704L90.0105 21.2506L90.0097 21.2605V21.2704H90.2597ZM90.5677 17.3924L90.3189 17.3675L90.3185 17.3726L90.5677 17.3924ZM90.7077 17.0004L90.8845 17.1771H90.8845L90.7077 17.0004ZM91.1417 17.1244H95.4257V16.6244H91.1417V17.1244ZM95.4257 17.1244C95.5769 17.1244 95.6439 17.1605 95.6735 17.1886C95.7007 17.2144 95.7357 17.2709 95.7357 17.4064H96.2357C96.2357 17.1871 96.1774 16.9776 96.0179 16.8261C95.8608 16.6769 95.6478 16.6244 95.4257 16.6244V17.1244ZM95.7357 17.4064C95.7357 17.5418 95.7007 17.5983 95.6735 17.6241C95.6439 17.6522 95.5769 17.6884 95.4257 17.6884V18.1884C95.6478 18.1884 95.8608 18.1358 96.0179 17.9866C96.1774 17.8351 96.2357 17.6256 96.2357 17.4064H95.7357ZM95.4257 17.6884H91.5617V18.1884H95.4257V17.6884ZM91.3124 17.9196L91.1024 20.7056L91.601 20.7432L91.811 17.9572L91.3124 17.9196ZM91.4217 20.9644C91.8394 20.8425 92.3739 20.7784 93.0317 20.7784V20.2784C92.3455 20.2784 91.76 20.3449 91.2817 20.4844L91.4217 20.9644ZM93.0317 20.7784C93.9214 20.7784 94.628 21.0045 95.1719 21.4379L95.4835 21.0469C94.8327 20.5283 94.0087 20.2784 93.0317 20.2784V20.7784ZM95.1719 21.4379C95.6971 21.8564 95.9737 22.4768 95.9737 23.3424H96.4737C96.4737 22.36 96.1529 21.5803 95.4835 21.0469L95.1719 21.4379ZM95.9737 23.3424C95.9737 24.1934 95.6556 24.879 95.0129 25.4189L95.3345 25.8018C96.0917 25.1657 96.4737 24.3393 96.4737 23.3424H95.9737ZM95.0129 25.4189C94.3622 25.9655 93.5714 26.2424 92.6257 26.2424V26.7424C93.6773 26.7424 94.5852 26.4312 95.3345 25.8018L95.0129 25.4189ZM92.6257 26.2424C91.6507 26.2424 90.9318 26.1218 90.4474 25.9009L90.2399 26.3558C90.8196 26.6202 91.622 26.7424 92.6257 26.7424V26.2424ZM90.4507 25.9024C89.9735 25.6764 89.7957 25.3983 89.7957 25.0784H89.2957C89.2957 25.6544 89.6499 26.0764 90.2367 26.3543L90.4507 25.9024ZM89.7957 25.0784C89.7957 24.9627 89.8279 24.8791 89.8841 24.8122C89.9436 24.7413 90.0455 24.6713 90.2127 24.6155L90.0546 24.1412C89.8299 24.2161 89.6377 24.3281 89.5013 24.4906C89.3615 24.657 89.2957 24.858 89.2957 25.0784H89.7957ZM89.8965 24.4574C90.0477 24.9109 90.4054 25.2273 90.9113 25.4235L91.0921 24.9573C90.6833 24.7988 90.4624 24.5738 90.3709 24.2993L89.8965 24.4574ZM90.917 25.4256C91.4179 25.6059 92.0081 25.6924 92.6817 25.6924V25.1924C92.0486 25.1924 91.5188 25.1108 91.0864 24.9551L90.917 25.4256ZM92.6817 25.6924C93.3932 25.6924 94.021 25.4959 94.5537 25.0964L94.2537 24.6964C93.8157 25.0249 93.2955 25.1924 92.6817 25.1924V25.6924ZM94.5537 25.0964C95.1042 24.6835 95.3817 24.1135 95.3817 23.4124H94.8817C94.8817 23.9619 94.6738 24.3813 94.2537 24.6964L94.5537 25.0964ZM95.3817 23.4124C95.3817 22.7157 95.1418 22.1628 94.6305 21.8071L94.3449 22.2176C94.6923 22.4592 94.8817 22.8397 94.8817 23.4124H95.3817ZM94.6326 21.8086C94.1651 21.4762 93.6136 21.3144 92.9897 21.3144V21.8144C93.5231 21.8144 93.9702 21.9512 94.3428 22.2161L94.6326 21.8086ZM92.9897 21.3144C92.3829 21.3144 91.7381 21.4171 91.0568 21.6186L91.1986 22.0981C91.8426 21.9076 92.4392 21.8144 92.9897 21.8144V21.3144ZM91.0486 21.6212C90.9991 21.6377 90.921 21.6504 90.8057 21.6504V22.1504C90.9517 22.1504 91.0882 22.135 91.2067 22.0955L91.0486 21.6212ZM90.8057 21.6504C90.7669 21.6504 90.7033 21.6336 90.6113 21.5487L90.2721 21.9161C90.4227 22.0551 90.6018 22.1504 90.8057 22.1504V21.6504ZM90.6185 21.5556C90.5484 21.4855 90.5097 21.3972 90.5097 21.2704H90.0097C90.0097 21.5169 90.0923 21.7366 90.2649 21.9091L90.6185 21.5556ZM90.5089 21.2902L90.8169 17.4122L90.3185 17.3726L90.0105 21.2506L90.5089 21.2902ZM90.8164 17.4172C90.8334 17.2481 90.872 17.1896 90.8845 17.1771L90.5309 16.8236C90.394 16.9605 90.3394 17.1633 90.3189 17.3675L90.8164 17.4172ZM90.8845 17.1771C90.8973 17.1643 90.9577 17.1244 91.1417 17.1244V16.6244C90.915 16.6244 90.6861 16.6684 90.5309 16.8236L90.8845 17.1771ZM99.4093 17.9384V17.6884H99.1775L99.1601 17.9196L99.4093 17.9384ZM99.1993 20.7244L98.9501 20.7056L98.9229 21.0654L99.2693 20.9644L99.1993 20.7244ZM103.021 25.6104L102.861 25.4189L103.021 25.6104ZM98.1913 26.1284L98.0843 26.3543L98.0876 26.3558L98.1913 26.1284ZM97.9813 24.3784L98.2185 24.2993L98.1395 24.0621L97.9023 24.1412L97.9813 24.3784ZM98.8493 25.1904L98.7589 25.4235L98.7647 25.4256L98.8493 25.1904ZM102.251 24.8964L102.401 25.0964L102.251 24.8964ZM102.335 22.0124L102.19 22.2161L102.193 22.2176L102.335 22.0124ZM98.9753 21.8584L98.9044 21.6185L98.8963 21.6212L98.9753 21.8584ZM98.2893 21.7324L98.1124 21.9093L98.1198 21.9161L98.2893 21.7324ZM98.1073 21.2704L97.8581 21.2506L97.8573 21.2605V21.2704H98.1073ZM98.4153 17.3924L98.1665 17.3675L98.1661 17.3726L98.4153 17.3924ZM98.5553 17.0004L98.7321 17.1771H98.7321L98.5553 17.0004ZM98.9893 17.1244H103.273V16.6244H98.9893V17.1244ZM103.273 17.1244C103.425 17.1244 103.492 17.1605 103.521 17.1886C103.548 17.2144 103.583 17.2709 103.583 17.4064H104.083C104.083 17.1871 104.025 16.9776 103.866 16.8261C103.708 16.6769 103.495 16.6244 103.273 16.6244V17.1244ZM103.583 17.4064C103.583 17.5418 103.548 17.5983 103.521 17.6241C103.492 17.6522 103.425 17.6884 103.273 17.6884V18.1884C103.495 18.1884 103.708 18.1358 103.866 17.9866C104.025 17.8351 104.083 17.6256 104.083 17.4064H103.583ZM103.273 17.6884H99.4093V18.1884H103.273V17.6884ZM99.1601 17.9196L98.9501 20.7056L99.4486 20.7432L99.6586 17.9572L99.1601 17.9196ZM99.2693 20.9644C99.687 20.8425 100.222 20.7784 100.879 20.7784V20.2784C100.193 20.2784 99.6077 20.3449 99.1293 20.4844L99.2693 20.9644ZM100.879 20.7784C101.769 20.7784 102.476 21.0045 103.02 21.4379L103.331 21.0469C102.68 20.5283 101.856 20.2784 100.879 20.2784V20.7784ZM103.02 21.4379C103.545 21.8564 103.821 22.4768 103.821 23.3424H104.321C104.321 22.36 104.001 21.5803 103.331 21.0469L103.02 21.4379ZM103.821 23.3424C103.821 24.1934 103.503 24.879 102.861 25.4189L103.182 25.8018C103.939 25.1657 104.321 24.3393 104.321 23.3424H103.821ZM102.861 25.4189C102.21 25.9655 101.419 26.2424 100.473 26.2424V26.7424C101.525 26.7424 102.433 26.4312 103.182 25.8018L102.861 25.4189ZM100.473 26.2424C99.4983 26.2424 98.7794 26.1218 98.2951 25.9009L98.0876 26.3558C98.6672 26.6202 99.4697 26.7424 100.473 26.7424V26.2424ZM98.2984 25.9024C97.8211 25.6764 97.6433 25.3983 97.6433 25.0784H97.1433C97.1433 25.6544 97.4976 26.0764 98.0843 26.3543L98.2984 25.9024ZM97.6433 25.0784C97.6433 24.9627 97.6756 24.8791 97.7318 24.8122C97.7913 24.7413 97.8931 24.6713 98.0604 24.6155L97.9023 24.1412C97.6776 24.2161 97.4854 24.3281 97.3489 24.4906C97.2091 24.657 97.1433 24.858 97.1433 25.0784H97.6433ZM97.7442 24.4574C97.8953 24.9109 98.2531 25.2273 98.759 25.4235L98.9397 24.9573C98.5309 24.7988 98.31 24.5738 98.2185 24.2993L97.7442 24.4574ZM98.7647 25.4256C99.2656 25.6059 99.8558 25.6924 100.529 25.6924V25.1924C99.8962 25.1924 99.3664 25.1108 98.934 24.9551L98.7647 25.4256ZM100.529 25.6924C101.241 25.6924 101.869 25.4959 102.401 25.0964L102.101 24.6964C101.663 25.0249 101.143 25.1924 100.529 25.1924V25.6924ZM102.401 25.0964C102.952 24.6835 103.229 24.1135 103.229 23.4124H102.729C102.729 23.9619 102.521 24.3813 102.101 24.6964L102.401 25.0964ZM103.229 23.4124C103.229 22.7157 102.989 22.1628 102.478 21.8071L102.193 22.2176C102.54 22.4592 102.729 22.8397 102.729 23.4124H103.229ZM102.48 21.8086C102.013 21.4762 101.461 21.3144 100.837 21.3144V21.8144C101.371 21.8144 101.818 21.9512 102.19 22.2161L102.48 21.8086ZM100.837 21.3144C100.231 21.3144 99.5858 21.4171 98.9044 21.6186L99.0463 22.0981C99.6902 21.9076 100.287 21.8144 100.837 21.8144V21.3144ZM98.8963 21.6212C98.8468 21.6377 98.7687 21.6504 98.6533 21.6504V22.1504C98.7993 22.1504 98.9359 22.135 99.0544 22.0955L98.8963 21.6212ZM98.6533 21.6504C98.6146 21.6504 98.551 21.6336 98.4589 21.5487L98.1198 21.9161C98.2704 22.0551 98.4494 22.1504 98.6533 22.1504V21.6504ZM98.4661 21.5556C98.396 21.4855 98.3573 21.3972 98.3573 21.2704H97.8573C97.8573 21.5169 97.94 21.7366 98.1126 21.9091L98.4661 21.5556ZM98.3566 21.2902L98.6646 17.4122L98.1661 17.3726L97.8581 21.2506L98.3566 21.2902ZM98.6641 17.4172C98.681 17.2481 98.7197 17.1896 98.7321 17.1771L98.3786 16.8236C98.2417 16.9605 98.187 17.1633 98.1666 17.3675L98.6641 17.4172ZM98.7321 17.1771C98.7449 17.1643 98.8054 17.1244 98.9893 17.1244V16.6244C98.7626 16.6244 98.5338 16.6684 98.3786 16.8236L98.7321 17.1771ZM106.333 17.3644L106.492 17.557L106.494 17.5552L106.333 17.3644ZM110.841 17.4624L111.016 17.2839L110.841 17.4624ZM111.107 20.5144L110.909 20.3622L110.908 20.3629L111.107 20.5144ZM109.959 21.2984L109.892 21.0576L109.908 21.543L109.959 21.2984ZM111.443 22.0544L111.613 21.8715L111.443 22.0544ZM110.953 25.6804L110.805 25.4788L110.804 25.4798L110.953 25.6804ZM106.025 26.1004L105.919 26.3269L105.921 26.3276L106.025 26.1004ZM105.815 24.3784L106.049 24.2892L105.967 24.0744L105.746 24.1382L105.815 24.3784ZM110.141 22.4184L110.018 22.636L110.021 22.6377L110.141 22.4184ZM109.805 20.5144L109.956 20.7138L109.957 20.7132L109.805 20.5144ZM109.903 18.2604L109.729 18.4398L109.734 18.4449L109.903 18.2604ZM107.075 18.1764L106.933 17.9708L106.93 17.9726L107.075 18.1764ZM106.347 19.1984V19.4484H106.532L106.586 19.2712L106.347 19.1984ZM105.855 18.5824C105.855 18.2788 106.033 17.9365 106.492 17.557L106.174 17.1717C105.662 17.5949 105.355 18.0647 105.355 18.5824H105.855ZM106.494 17.5552C106.914 17.1998 107.595 16.9984 108.587 16.9984V16.4984C107.544 16.4984 106.722 16.7076 106.172 17.1735L106.494 17.5552ZM108.587 16.9984C109.571 16.9984 110.246 17.2291 110.666 17.6409L111.016 17.2839C110.465 16.7437 109.638 16.4984 108.587 16.4984V16.9984ZM110.666 17.6409C111.112 18.0787 111.319 18.5446 111.319 19.0444H111.819C111.819 18.3869 111.54 17.798 111.016 17.2839L110.666 17.6409ZM111.319 19.0444C111.319 19.5763 111.178 20.0106 110.909 20.3622L111.305 20.6666C111.652 20.2154 111.819 19.6698 111.819 19.0444H111.319ZM110.908 20.3629C110.642 20.7124 110.305 20.9419 109.892 21.0576L110.026 21.5391C110.546 21.3935 110.975 21.1003 111.306 20.6659L110.908 20.3629ZM109.908 21.543C110.444 21.6556 110.897 21.8874 111.273 22.2373L111.613 21.8715C111.168 21.4561 110.631 21.1839 110.01 21.0537L109.908 21.543ZM111.273 22.2373C111.626 22.5662 111.809 23.0051 111.809 23.5804H112.309C112.309 22.8863 112.082 22.3078 111.613 21.8715L111.273 22.2373ZM111.809 23.5804C111.809 24.3536 111.483 24.981 110.805 25.4789L111.101 25.8819C111.898 25.2971 112.309 24.5245 112.309 23.5804H111.809ZM110.804 25.4798C110.123 25.9858 109.314 26.2424 108.363 26.2424V26.7424C109.41 26.7424 110.327 26.4576 111.102 25.881L110.804 25.4798ZM108.363 26.2424C107.391 26.2424 106.652 26.1133 106.129 25.8732L105.921 26.3276C106.536 26.6101 107.356 26.7424 108.363 26.7424V26.2424ZM106.131 25.8738C105.599 25.6259 105.435 25.3682 105.435 25.1344H104.935C104.935 25.6659 105.331 26.0522 105.919 26.3269L106.131 25.8738ZM105.435 25.1344C105.435 24.9913 105.473 24.8922 105.535 24.8184C105.599 24.7416 105.707 24.6699 105.884 24.6185L105.746 24.1382C105.503 24.2082 105.296 24.3231 105.15 24.4983C105.002 24.6765 104.935 24.8948 104.935 25.1344H105.435ZM105.581 24.4675C105.912 25.335 106.876 25.6924 108.237 25.6924V25.1924C106.91 25.1924 106.259 24.8404 106.049 24.2892L105.581 24.4675ZM108.237 25.6924C108.976 25.6924 109.638 25.5244 110.213 25.1811L109.957 24.7517C109.468 25.043 108.898 25.1924 108.237 25.1924V25.6924ZM110.213 25.1811C110.809 24.8254 111.133 24.3155 111.133 23.6644H110.633C110.633 24.1146 110.425 24.4727 109.957 24.7517L110.213 25.1811ZM111.133 23.6644C111.133 23.3466 111.062 23.0571 110.912 22.805C110.762 22.5529 110.541 22.3522 110.261 22.1991L110.021 22.6377C110.236 22.7552 110.385 22.8975 110.483 23.0608C110.58 23.224 110.633 23.4222 110.633 23.6644H111.133ZM110.264 22.2008C109.725 21.8954 109.088 21.7484 108.363 21.7484V22.2484C109.02 22.2484 109.568 22.3813 110.018 22.6359L110.264 22.2008ZM108.363 21.7484H107.775V22.2484H108.363V21.7484ZM107.775 21.7484C107.592 21.7484 107.501 21.7106 107.459 21.6772C107.427 21.6522 107.395 21.6072 107.395 21.4944H106.895C106.895 21.7175 106.968 21.9245 107.146 22.0676C107.314 22.2021 107.538 22.2484 107.775 22.2484V21.7484ZM107.395 21.4944C107.395 21.361 107.432 21.3036 107.466 21.2738C107.507 21.238 107.595 21.1984 107.775 21.1984V20.6984C107.535 20.6984 107.308 20.7497 107.139 20.8959C106.963 21.0481 106.895 21.2638 106.895 21.4944H107.395ZM107.775 21.1984H108.363V20.6984H107.775V21.1984ZM108.363 21.1984C108.985 21.1984 109.521 21.0423 109.956 20.7138L109.654 20.315C109.323 20.5651 108.899 20.6984 108.363 20.6984V21.1984ZM109.957 20.7132C110.403 20.3727 110.643 19.929 110.643 19.3944H110.143C110.143 19.7558 109.991 20.0587 109.653 20.3155L109.957 20.7132ZM110.643 19.3944C110.643 18.8695 110.452 18.4236 110.072 18.0759L109.734 18.4449C110.007 18.6944 110.143 19.0046 110.143 19.3944H110.643ZM110.077 18.081C109.698 17.713 109.164 17.5484 108.517 17.5484V18.0484C109.083 18.0484 109.473 18.1917 109.729 18.4398L110.077 18.081ZM108.517 17.5484C107.886 17.5484 107.351 17.6813 106.933 17.9708L107.217 18.3819C107.527 18.1674 107.953 18.0484 108.517 18.0484V17.5484ZM106.93 17.9726C106.529 18.2577 106.254 18.6451 106.108 19.1256L106.586 19.2712C106.701 18.8929 106.912 18.5991 107.22 18.3802L106.93 17.9726ZM106.347 18.9484C106.128 18.9484 106.01 18.902 105.95 18.852C105.899 18.8095 105.855 18.7357 105.855 18.5824H105.355C105.355 18.8397 105.435 19.0739 105.631 19.2367C105.818 19.3921 106.071 19.4484 106.347 19.4484V18.9484Z" fill="black"/>
</svg>
