<svg width="92" height="93" viewBox="0 0 92 93" fill="none" xmlns="http://www.w3.org/2000/svg">
<g clip-path="url(#clip0)">
<path d="M58.5047 56.5767H51.2477V54.3165C52.3525 53.9193 53.4152 53.3977 54.4161 52.7541C55.0415 52.3519 55.2226 51.518 54.8204 50.8919C54.4175 50.2658 53.5836 50.0847 52.9575 50.4876C50.8652 51.8332 48.4443 52.5442 45.9575 52.5442C39.4368 52.5442 33.9093 47.6646 33.1014 41.1937L31.4049 27.6161C34.0342 27.4989 37.4012 26.8208 40.6974 24.6639C42.1244 25.5399 45.3468 27.3051 49.6172 28.3559C51.8605 28.9076 54.0771 29.1813 56.2495 29.1813C57.6392 29.1813 59.0094 29.0655 60.357 28.8423L58.8142 41.1937C58.5637 43.2047 57.8681 45.0767 56.7492 46.7591C56.3365 47.3782 56.505 48.2149 57.1241 48.6276C57.3536 48.7806 57.6133 48.8536 57.8695 48.8536C58.3054 48.8536 58.7328 48.6423 58.9925 48.2521C60.2012 46.4362 60.9993 44.4365 61.372 42.2985C62.1497 42.6081 62.985 42.7709 63.8307 42.7709C67.5003 42.7709 70.4862 39.7857 70.4862 36.1161C70.4862 34.3614 69.8025 32.7639 68.6886 31.5734L69.2326 28.9209C69.4811 27.7073 69.6362 26.4741 69.6959 25.2479C70.0875 25.0008 70.4764 24.7453 70.8603 24.4744C71.5756 23.9697 71.9904 23.1464 71.97 22.2725C71.949 21.4028 71.4991 20.6041 70.7649 20.1366L69.1919 19.1336C68.0801 13.9928 65.243 9.3027 61.1797 5.90268C56.9324 2.34824 51.5264 0.390625 45.9582 0.390625C41.2645 0.390625 36.7337 1.75021 32.855 4.32199C32.2352 4.73331 32.0654 5.56998 32.4767 6.19046C32.8887 6.81094 33.7247 6.9801 34.3452 6.56879C37.7803 4.29041 41.7959 3.08594 45.9582 3.08594C50.9669 3.08594 55.6325 4.77472 59.4509 7.96979C62.3118 10.364 64.4842 13.4797 65.7533 16.9415L61.7552 14.3936C61.1277 13.9935 60.2946 14.1781 59.8945 14.8056C59.4944 15.4331 59.679 16.2663 60.3065 16.6664L69.2087 22.3406C63.5774 26.2776 57.2335 27.4287 50.3521 25.7603C45.1018 24.4877 41.487 21.9672 41.4526 21.9426C40.9803 21.6078 40.3464 21.612 39.8783 21.9538C35.0779 25.4577 29.9218 25.0668 27.9283 24.7362C27.1942 24.614 26.5 25.1103 26.3785 25.8445C26.2564 26.5787 26.7527 27.2729 27.4868 27.395C27.8153 27.449 28.2175 27.5045 28.6801 27.5487L28.9258 29.5154C28.6485 29.4803 28.3677 29.4607 28.0842 29.4607C27.2215 29.4607 26.3975 29.6277 25.6408 29.9275L25.3236 28.3791C23.9822 21.838 25.751 15.2127 30.1751 10.2018C30.6679 9.64383 30.6152 8.79242 30.0572 8.29968C29.4992 7.80695 28.6478 7.86029 28.1551 8.4183C23.1652 14.07 21.1704 21.5425 22.683 28.9202L23.227 31.5727C22.1131 32.7632 21.4287 34.3607 21.4287 36.1154C21.4287 39.785 24.4146 42.7709 28.0842 42.7709C28.9398 42.7709 29.7694 42.6102 30.5436 42.3013C31.5326 47.9264 35.4963 52.4467 40.6679 54.3123V56.576H32.8571C30.2425 56.576 27.7241 57.3537 25.5735 58.8249C24.9593 59.2453 24.8021 60.0834 25.2225 60.6982C25.4836 61.0794 25.9062 61.285 26.3357 61.285C26.5982 61.285 26.8629 61.2085 27.0959 61.0492C28.7959 59.8861 30.7879 59.2713 32.8571 59.2713H40.6679V60.4933C40.6679 63.4104 43.041 65.7828 45.9575 65.7828C48.8746 65.7828 51.247 63.4104 51.247 60.4933V59.2713H58.504C64.1375 59.2713 68.7209 63.8547 68.7209 69.4889V91.043C68.7209 91.787 69.3246 92.3906 70.0686 92.3906C70.8133 92.3906 71.4162 91.787 71.4162 91.043V69.4889C71.4169 62.3695 65.6241 56.5767 58.5047 56.5767ZM63.8314 40.0756C63.0804 40.0756 62.3687 39.8685 61.7454 39.479L62.6368 32.3406C63.0207 32.2192 63.4208 32.156 63.8314 32.156C66.0151 32.156 67.7909 33.9325 67.7909 36.1161C67.7909 38.2998 66.0151 40.0756 63.8314 40.0756ZM66.592 28.3791L66.2748 29.9282C65.5174 29.6277 64.6934 29.4614 63.8314 29.4614C63.5479 29.4614 63.2671 29.481 62.9892 29.5161L63.1527 28.2092C64.4119 27.8456 65.6459 27.3795 66.8496 26.8131C66.7816 27.3374 66.6987 27.8604 66.592 28.3791ZM24.1247 36.1161C24.1247 33.9325 25.9012 32.156 28.0842 32.156C28.4948 32.156 28.8949 32.2192 29.2788 32.3406L30.1709 39.4804C29.5462 39.8699 28.8324 40.0756 28.0842 40.0756C25.9005 40.0756 24.1247 38.2998 24.1247 36.1161ZM45.9582 63.0882C44.5277 63.0882 43.3632 61.9245 43.3632 60.494V55.0198C44.209 55.1616 45.0752 55.2395 45.9582 55.2395C46.832 55.2395 47.6996 55.1644 48.5517 55.0212V60.494C48.5517 61.9245 47.3886 63.0882 45.9582 63.0882Z" fill="black"/>
<path d="M22.8512 63.5334C22.1718 63.2287 21.3744 63.5327 21.0698 64.2114C20.3236 65.8756 19.9453 67.6514 19.9453 69.489V91.0431C19.9453 91.7871 20.5489 92.3908 21.293 92.3908C22.037 92.3908 22.6406 91.7871 22.6406 91.0431V69.489C22.6406 68.034 22.9396 66.6295 23.5292 65.3141C23.8339 64.6354 23.5299 63.838 22.8512 63.5334Z" fill="black"/>
<path d="M37.8523 33.6236C37.1089 33.644 36.5222 34.2638 36.5425 35.0078L36.565 35.8494C36.5853 36.5808 37.1847 37.1598 37.9119 37.1598C37.9239 37.1598 37.9365 37.1598 37.9491 37.1591C38.6931 37.1388 39.2799 36.519 39.2596 35.7757L39.2364 34.9341C39.2161 34.1901 38.5977 33.6019 37.8523 33.6236Z" fill="black"/>
<path d="M53.4135 33.6236C52.6695 33.644 52.0827 34.2638 52.1031 35.0078L52.1262 35.8494C52.1459 36.5808 52.7453 37.1598 53.4725 37.1598C53.4844 37.1598 53.497 37.1598 53.5097 37.1591C54.2537 37.1388 54.8405 36.519 54.8201 35.7757L54.797 34.9341C54.7766 34.1901 54.1582 33.6019 53.4135 33.6236Z" fill="black"/>
<path d="M49.3194 40.0593C48.4757 41.2245 47.1154 41.9201 45.6814 41.9201C44.2467 41.9201 42.8871 41.2245 42.0434 40.0593C41.6068 39.4564 40.7638 39.3216 40.1609 39.7582C39.558 40.1948 39.4232 41.0378 39.8598 41.64C41.2089 43.5036 43.3855 44.6154 45.6814 44.6154C47.9773 44.6154 50.1532 43.5036 51.5023 41.64C51.9389 41.0378 51.8041 40.1948 51.2012 39.7582C50.5982 39.3216 49.7559 39.4564 49.3194 40.0593Z" fill="black"/>
<rect x="31.5957" y="80.3096" width="28.8081" height="11.6162" fill="#95161B"/>
<path d="M60.6491 71.6426C59.9044 71.6426 59.3015 72.2462 59.3015 72.9902V78.7922H32.0605V72.9902C32.0605 72.2462 31.4569 71.6426 30.7129 71.6426C29.9689 71.6426 29.3652 72.2462 29.3652 72.9902V91.0432C29.3652 91.7872 29.9689 92.3909 30.7129 92.3909C31.4569 92.3909 32.0605 91.7872 32.0605 91.0432V81.4875H59.3015V91.0432C59.3015 91.7872 59.9044 92.3909 60.6491 92.3909C61.3931 92.3909 61.9968 91.7872 61.9968 91.0432V72.9902C61.9968 72.2462 61.3931 71.6426 60.6491 71.6426Z" fill="black"/>
</g>
<defs>
<clipPath id="clip0">
<rect width="92" height="92" fill="white" transform="translate(0 0.390625)"/>
</clipPath>
</defs>
</svg>
