<svg width="90" height="91" viewBox="0 0 90 91" fill="none" xmlns="http://www.w3.org/2000/svg">
<g clip-path="url(#clip0)">
<rect x="72.6924" y="53.1792" width="5.19231" height="6.05769" fill="#95161B"/>
<mask id="mask0" mask-type="alpha" maskUnits="userSpaceOnUse" x="12" y="6" width="45" height="15">
<rect x="12.1152" y="6.44824" width="44.1346" height="13.8462" fill="#C4C4C4"/>
</mask>
<g mask="url(#mask0)">
<path d="M16.7855 9.695C16.8564 9.41311 17.1554 9.23899 17.435 9.31676L56.0669 20.0618C56.3568 20.1424 56.4966 20.4569 56.3644 20.7311L53.2429 27.2082C53.1372 27.4276 52.8892 27.5488 52.6536 27.4964L14.9246 19.0962C14.6596 19.0372 14.5007 18.78 14.5669 18.5169L16.7855 9.695Z" fill="#95161B" stroke="#95161B" stroke-width="3"/>
</g>
<path d="M86.0451 38.7975H84.7275V34.8417V20.7792C84.7275 16.1752 80.9817 12.4294 76.3779 12.4294H40.1707L15.7436 5.45023C15.7366 5.4483 15.7294 5.44724 15.7224 5.44531C15.7152 5.44338 15.7083 5.44057 15.7011 5.43881C15.6863 5.43512 15.6717 5.43336 15.6572 5.43019C15.6345 5.42545 15.6118 5.42053 15.5891 5.41683C15.5686 5.41349 15.5484 5.41139 15.5278 5.40892C15.5039 5.40611 15.4801 5.40365 15.4564 5.40224C15.4371 5.40119 15.4179 5.40101 15.3986 5.40066C15.374 5.40031 15.3495 5.40014 15.3251 5.40119C15.307 5.40189 15.2889 5.40365 15.271 5.40506C15.2458 5.40717 15.2207 5.40945 15.1959 5.41314C15.179 5.4156 15.1623 5.41877 15.1456 5.42176C15.12 5.42633 15.0947 5.43125 15.0695 5.4374C15.0539 5.44127 15.0386 5.44566 15.0231 5.45006C14.9975 5.45744 14.9721 5.465 14.9468 5.47379C14.9326 5.47889 14.9185 5.48433 14.9043 5.48996C14.8788 5.4998 14.8535 5.51017 14.8287 5.5216C14.8155 5.52775 14.8027 5.53443 14.7897 5.54094C14.7649 5.55342 14.7405 5.56607 14.7166 5.58031C14.7041 5.58752 14.6921 5.59525 14.6798 5.60299C14.6563 5.61775 14.6331 5.63287 14.6106 5.64922C14.5988 5.65765 14.5874 5.6668 14.5758 5.67576C14.5541 5.69246 14.5327 5.70951 14.5121 5.72762C14.5005 5.73781 14.4894 5.74853 14.4782 5.75908C14.4589 5.77736 14.4397 5.79564 14.4214 5.81498C14.41 5.82711 14.3993 5.83976 14.3882 5.85242C14.3715 5.87158 14.355 5.89092 14.3393 5.91113C14.3281 5.92572 14.3175 5.94066 14.3068 5.9556C14.2929 5.97512 14.2792 5.9948 14.2666 6.01502C14.2557 6.03224 14.2456 6.05017 14.2356 6.06793C14.2245 6.08744 14.2135 6.10713 14.2035 6.12734C14.1936 6.14703 14.1848 6.16724 14.1759 6.18746C14.1671 6.20732 14.1585 6.22718 14.1507 6.24758C14.1426 6.26902 14.1356 6.29099 14.1284 6.31314C14.1238 6.32738 14.1182 6.34074 14.114 6.35515C14.1119 6.36236 14.111 6.36939 14.1091 6.37642C14.1071 6.38363 14.1043 6.39049 14.1026 6.39769L12.5951 12.4291H8.35047C3.75574 12.4291 0.0165234 16.1597 0.00140625 20.7511C0.00123047 20.7606 0 20.7695 0 20.7789V66.4819C0 67.2096 0.592382 67.8003 1.31836 67.8003C2.04609 67.8003 2.63671 67.2096 2.63671 66.4819V26.8596C4.13155 28.2652 6.14143 29.129 8.35047 29.129H76.3779L76.3824 29.1288C79.5303 29.1313 82.0907 31.6931 82.0907 34.8419V44.0711H67.5867L67.5843 44.0712C67.5461 44.0712 67.5081 44.0735 67.4703 44.0769C67.4283 44.0806 67.3868 44.0865 67.3461 44.0941C67.3399 44.0951 67.3339 44.0957 67.3278 44.0969C67.2933 44.1038 67.2596 44.1129 67.226 44.1224C67.2186 44.1245 67.2111 44.1259 67.2039 44.1282C67.174 44.1373 67.145 44.1482 67.116 44.1593C67.1049 44.1635 67.0936 44.167 67.0826 44.1716C67.0583 44.1816 67.0349 44.1934 67.0116 44.2048C66.9961 44.2122 66.9804 44.2191 66.9653 44.227C66.947 44.2366 66.9298 44.2477 66.9122 44.2583C66.8927 44.2699 66.8729 44.2811 66.8539 44.2938C66.841 44.3022 66.8293 44.3119 66.817 44.3208C66.7945 44.337 66.7718 44.353 66.7503 44.3708C66.741 44.3785 66.7324 44.3871 66.7234 44.395C66.7004 44.4151 66.6774 44.4349 66.6556 44.4567C66.6428 44.4696 66.6312 44.4836 66.619 44.497C66.602 44.5154 66.5844 44.5335 66.5682 44.5532C66.541 44.5864 66.5155 44.6209 66.4916 44.6566L66.4902 44.6585L59.4593 55.2056C59.4103 55.279 59.3688 55.3569 59.3359 55.4379C59.3234 55.4682 59.3134 55.4989 59.3034 55.5295C59.3004 55.5388 59.2965 55.5478 59.2937 55.5571C59.2839 55.5896 59.2763 55.6225 59.2691 55.6552C59.2672 55.6638 59.2647 55.6723 59.263 55.6809C59.2572 55.7104 59.2533 55.7401 59.2496 55.7698C59.248 55.7825 59.2456 55.7951 59.2443 55.8079C59.2419 55.8324 59.2413 55.8566 59.2405 55.8811C59.2396 55.8997 59.238 55.9183 59.238 55.9371C59.238 55.9553 59.2396 55.9734 59.2403 55.9915C59.2412 56.0164 59.2419 56.0416 59.2443 56.0665C59.2456 56.0787 59.2478 56.0908 59.2494 56.1029C59.2533 56.1331 59.2572 56.1634 59.2631 56.1934C59.2647 56.2017 59.2672 56.2098 59.2691 56.218C59.2763 56.2511 59.284 56.2841 59.2939 56.317C59.2967 56.3263 59.3006 56.3353 59.3036 56.3448C59.3136 56.3754 59.3236 56.4061 59.3361 56.4364C59.3691 56.5172 59.4106 56.5953 59.4598 56.6689L66.4905 67.2144L66.4916 67.2158C66.5199 67.2578 66.5508 67.2979 66.5835 67.3364C66.5943 67.349 66.6057 67.3608 66.6168 67.3727C66.6391 67.3972 66.6623 67.4207 66.6864 67.4434C66.7006 67.4568 66.7147 67.4698 66.7291 67.4823C66.7547 67.5042 66.7813 67.5248 66.8085 67.5448C66.8208 67.5538 66.8326 67.5637 66.8451 67.5721C66.8846 67.599 66.9256 67.6238 66.968 67.6463C66.9787 67.6519 66.9898 67.6566 67.0005 67.6619C67.0342 67.6788 67.0687 67.6944 67.104 67.7083C67.1177 67.7138 67.1314 67.7187 67.1453 67.7236C67.1789 67.7356 67.213 67.7461 67.2478 67.7554C67.262 67.7591 67.2761 67.763 67.2905 67.7665C67.3262 67.7748 67.3624 67.7811 67.3991 67.7864C67.4125 67.7883 67.4257 67.7909 67.439 67.7925C67.4844 67.7976 67.5305 67.8004 67.5772 67.8008C67.5809 67.8008 67.5846 67.8015 67.5885 67.8015L67.5909 67.8013H82.0913V77.0312C82.0913 80.1816 79.5284 82.7444 76.3784 82.7444H8.35118C5.20118 82.7444 2.6383 80.1816 2.6383 77.0312C2.6383 77.0244 2.63742 77.0177 2.63724 77.0108V71.756C2.63724 71.0301 2.04662 70.4377 1.31888 70.4377C0.592909 70.4377 0.000527343 71.0301 0.000527343 71.756V77.0312C0.000527343 77.0449 0.00210937 77.0583 0.00263671 77.0718C0.0246093 81.6572 3.76083 85.3812 8.35118 85.3812H76.3784C80.9819 85.3812 84.7273 81.6361 84.728 77.0326V67.8013H86.0456C88.226 67.8013 90 66.0273 90 63.8469V42.7518C89.9995 40.5714 88.2255 38.7975 86.0451 38.7975ZM16.33 8.35993L39.5927 15.0067L39.5961 15.0076L55.1871 19.4623H13.5552L16.33 8.35993ZM82.0906 28.7607C80.5959 27.3555 78.5864 26.4919 76.3779 26.4919C76.3756 26.4919 76.3735 26.4923 76.371 26.4923H8.35047C5.2003 26.4923 2.63742 23.9294 2.63742 20.7792C2.63742 17.629 5.2003 15.0662 8.35047 15.0662H11.9361L10.8374 19.4623H8.35082C7.62274 19.4623 7.03247 20.0525 7.03247 20.7806C7.03247 21.5087 7.62274 22.099 8.35082 22.099H11.8622C11.864 22.099 11.8659 22.0993 11.8678 22.0993L11.8719 22.099H64.5958C64.5975 22.099 64.6007 22.0993 64.6007 22.0993L64.6049 22.099H74.6185C75.3466 22.099 75.9368 21.5087 75.9368 20.7806C75.9368 20.0525 75.3466 19.4623 74.6185 19.4623H64.7848L49.3988 15.0662H76.3777C79.5277 15.0662 82.0906 17.629 82.0906 20.7792V28.7607ZM87.3628 63.8462C87.3628 64.5727 86.7716 65.1639 86.0451 65.1639H68.2923L62.1401 55.9364L68.2923 46.7076H86.0451C86.0636 46.7076 86.0815 46.7055 86.0998 46.7048C86.542 46.6986 86.9667 46.6199 87.3628 46.4796V63.8462ZM86.0451 44.0695C86.036 44.0695 86.027 44.0707 86.0179 44.0709H84.7275V41.4342H86.0451C86.7716 41.4342 87.3628 42.0253 87.3628 42.7518C87.3628 43.4783 86.7716 44.0695 86.0451 44.0695Z" fill="black"/>
<path d="M74.9297 51.4482C72.2641 51.4482 70.0957 53.6168 70.0957 56.2824C70.0957 58.9479 72.2641 61.1164 74.9297 61.1164C77.5952 61.1164 79.7636 58.9479 79.7636 56.2824C79.7636 53.6168 77.5952 51.4482 74.9297 51.4482ZM74.9297 58.4796C73.718 58.4796 72.7324 57.494 72.7324 56.2824C72.7324 55.0707 73.718 54.085 74.9297 54.085C76.1413 54.085 77.1269 55.0707 77.1269 56.2824C77.1269 57.494 76.1413 58.4796 74.9297 58.4796Z" fill="black"/>
</g>
<defs>
<clipPath id="clip0">
<rect width="90" height="90" fill="white" transform="translate(0 0.390625)"/>
</clipPath>
</defs>
</svg>
