<svg width="20" height="19" viewBox="0 0 20 19" fill="none" xmlns="http://www.w3.org/2000/svg">
<path d="M8.84777 0.94463C9.14712 0.0233192 10.4505 0.0233181 10.7499 0.944629L12.2685 5.61839C12.4024 6.03041 12.7863 6.30937 13.2195 6.30937H18.1338C19.1025 6.30937 19.5053 7.54899 18.7216 8.11839L14.7459 11.0069C14.3954 11.2616 14.2487 11.7129 14.3826 12.125L15.9012 16.7987C16.2005 17.72 15.1461 18.4862 14.3624 17.9168L10.3866 15.0282C10.0361 14.7736 9.56153 14.7736 9.21104 15.0282L5.2353 17.9168C4.45159 18.4862 3.39711 17.72 3.69646 16.7987L5.21506 12.125C5.34893 11.7129 5.20227 11.2616 4.85179 11.0069L0.876049 8.11839C0.0923355 7.54899 0.495111 6.30937 1.46383 6.30937H6.37812C6.81134 6.30937 7.1953 6.03041 7.32917 5.61839L8.84777 0.94463Z" fill="#FEBC40"/>
</svg>
